# Blender v2.81 (sub 16) OBJ File: 'tardis.blend'
# www.blender.org
mtllib tardis.mtl
o topWide
v -0.034375 1.891366 0.927500
v -0.034375 2.088241 0.927500
v -0.034375 2.088242 0.072500
v 0.072500 2.088241 0.927500
v 0.072500 2.088242 0.072500
v 0.072500 1.891366 0.072500
v 0.072500 1.891366 0.927500
v -0.034375 1.891366 0.072500
v 0.019062 0.113037 0.874062
v 0.019062 2.094804 0.874063
v 0.125937 2.094804 0.874063
v 0.125937 0.113037 0.980937
v 0.125937 2.094804 0.980938
v 0.019062 2.094804 0.980938
v 0.072500 2.138781 0.072500
v 0.179374 2.160429 0.179375
v 0.820624 2.160429 0.179375
v 0.125937 0.113037 0.874062
v 0.019062 0.113037 0.980937
v 1.034374 1.891366 0.072500
v 1.034374 2.088242 0.072500
v 1.034374 2.088241 0.927500
v 0.927500 2.088242 0.072500
v 0.927500 2.088241 0.927500
v 0.927500 1.891366 0.072500
v 1.034374 1.891366 0.927500
v 0.874063 0.113037 0.980937
v 0.874062 2.094804 0.980938
v 0.874062 2.094804 0.874063
v 0.980937 0.113037 0.874062
v 0.980937 2.094804 0.874063
v 0.980937 2.094804 0.980938
v 0.179374 2.232474 0.179375
v 0.446562 2.291679 0.446563
v 0.553437 2.291679 0.446563
v 0.874063 0.113037 0.874062
v 0.980937 0.113037 0.980937
v 0.553437 2.431134 0.446563
v 0.553437 2.431134 0.553438
v 0.446562 2.291679 0.553438
v 0.446562 2.431134 0.553438
v 0.446562 2.431134 0.446563
v 0.564125 2.431134 0.435875
v 0.564125 2.431134 0.564125
v 0.553437 2.291679 0.553438
v 0.954219 0.124011 0.473281
v 0.954219 2.054221 0.473282
v 0.954219 2.054221 0.526719
v 0.954219 0.124011 0.526719
v 0.900781 2.054221 0.526719
v 0.900781 0.124011 0.473281
v 0.900781 2.054221 0.473282
v 0.927500 1.891366 1.034375
v 0.927500 2.088241 1.034375
v 0.072500 2.088241 1.034375
v 0.927500 2.138780 0.927500
v 0.072500 2.138780 0.927500
v 0.927500 1.891366 0.927500
v 0.072500 1.891366 1.034375
v 0.927500 2.138781 0.072500
v 0.564125 2.443318 0.564125
v 0.435874 2.443318 0.564125
v 0.125937 0.113038 0.019062
v 0.125937 2.094804 0.019063
v 0.125937 2.094804 0.125938
v 0.019062 0.113038 0.125937
v 0.019062 2.094804 0.125938
v 0.019062 2.094804 0.019063
v 0.820624 2.232474 0.179375
v 0.125937 0.113038 0.125937
v 0.019062 0.113038 0.019062
v 0.927500 0.123279 0.072500
v 0.927500 1.895136 0.072500
v 0.927500 1.895135 0.927500
v 0.072500 0.123278 0.927500
v 0.072500 1.895135 0.927500
v 0.072500 1.895136 0.072500
v 0.927500 0.123278 0.927500
v 0.072500 0.123278 0.072500
v 1.034375 -0.005195 -0.034375
v 1.034375 0.126055 -0.034375
v 1.034375 0.126054 1.034375
v -0.034375 -0.005196 1.034375
v -0.034375 0.126054 1.034375
v -0.034375 0.126054 -0.034375
v 0.927500 0.126055 0.072500
v 0.927500 0.126054 0.927500
v -0.034375 -0.005196 -0.034375
v 1.034375 -0.005196 1.034375
v 0.927500 1.891366 -0.034375
v 0.072500 1.891366 -0.034375
v 0.072500 2.088242 -0.034375
v 0.564125 2.443318 0.435875
v 0.435874 2.443318 0.435875
v 0.474125 2.462430 0.474125
v 0.927500 1.891366 0.072500
v 0.072500 1.891366 0.072500
v 0.927500 2.088242 -0.034375
v 0.820624 2.160429 0.820625
v 0.435874 2.431134 0.435875
v 0.820624 2.232474 0.820625
v 0.179374 2.160429 0.820625
v 0.179374 2.232474 0.820625
v 0.980937 0.113038 0.125937
v 0.980937 2.094804 0.125938
v 0.874062 2.094804 0.125938
v 0.874063 0.113038 0.019062
v 0.874062 2.094804 0.019063
v 0.980937 2.094804 0.019063
v 0.874063 0.113038 0.125937
v 0.980937 0.113038 0.019062
v 0.072500 0.126054 0.927500
v 0.072500 0.126054 0.072500
v 0.435874 2.431134 0.564125
v 0.525874 2.462430 0.474125
v 0.474125 2.462430 0.525875
v 0.525874 2.462430 0.525875
v 0.927500 1.891366 0.927500
v 0.900781 0.124011 0.526719
v 0.072500 1.891366 0.927500
vt 0.980469 0.847656
vt 0.980469 0.902344
vt 0.699219 0.902344
vt 0.980469 0.917969
vt 0.699219 0.917969
vt 0.699219 0.832031
vt 0.980469 0.832031
vt 0.699219 0.847656
vt 0.683594 0.902344
vt 0.996094 0.847656
vt 0.996094 0.902344
vt 0.285156 0.042969
vt 0.285156 0.433594
vt 0.269531 0.433594
vt 0.246094 0.042969
vt 0.246094 0.433594
vt 0.230469 0.433594
vt 0.195312 0.851562
vt 0.140625 0.851562
vt 0.140625 0.796875
vt 0.000000 0.996094
vt 0.042969 0.953125
vt 0.300781 0.953125
vt 0.230469 0.039062
vt 0.230469 0.429688
vt 0.214844 0.429688
vt 0.261719 0.042969
vt 0.261719 0.433594
vt 0.246094 0.433594
vt 0.980469 0.691406
vt 0.980469 0.742188
vt 0.699219 0.742188
vt 0.980469 0.757812
vt 0.699219 0.757812
vt 0.980469 0.675781
vt 0.699219 0.691406
vt 0.683594 0.742188
vt 0.996094 0.691406
vt 0.996094 0.742188
vt 0.035156 0.042969
vt 0.035156 0.433594
vt 0.019531 0.433594
vt 1.000000 0.042969
vt 1.000000 0.437500
vt 0.980469 0.437500
vt 0.140625 0.851562
vt 0.140625 0.796875
vt 0.195312 0.796875
vt -0.000000 0.992188
vt 0.140625 0.851562
vt 0.195312 0.851562
vt 0.976562 0.042969
vt 0.976562 0.433594
vt 0.960938 0.433594
vt 0.019531 0.042969
vt 0.019531 0.433594
vt -0.000000 0.433594
vt 0.996094 0.449219
vt 0.996094 0.574219
vt 0.878906 0.574219
vt 0.761719 0.449219
vt 0.761719 0.574219
vt 0.644531 0.574219
vt 0.011719 0.453125
vt 0.000000 0.441406
vt 0.148438 0.441406
vt 0.527344 0.449219
vt 0.644531 0.449219
vt 0.644531 0.574219
vt 0.878906 0.449219
vt 0.878906 0.574219
vt 0.761719 0.574219
vt 0.875000 0.042969
vt 0.875000 0.437500
vt 0.867188 0.437500
vt 0.875000 0.042969
vt 0.875000 0.437500
vt 0.867188 0.437500
vt 0.875000 0.042969
vt 0.875000 0.433594
vt 0.867188 0.433594
vt 0.980469 0.929688
vt 0.980469 0.980469
vt 0.699219 0.980469
vt 0.246094 0.593750
vt 0.246094 0.621094
vt 0.000000 0.621094
vt 0.980469 0.914062
vt 0.699219 0.929688
vt 1.000000 0.593750
vt 1.000000 0.621094
vt 0.750000 0.621094
vt 0.125000 0.464844
vt 0.136719 0.453125
vt 0.136719 0.578125
vt 0.531250 0.042969
vt 0.531250 0.437500
vt 0.515625 0.437500
vt 0.496094 0.042969
vt 0.496094 0.437500
vt 0.472656 0.437500
vt 0.140625 0.796875
vt 0.195312 0.796875
vt 0.195312 0.851562
vt 0.335938 0.992188
vt 0.195312 0.796875
vt 0.476562 0.042969
vt 0.476562 0.433594
vt 0.460938 0.433594
vt 0.519531 0.042969
vt 0.519531 0.437500
vt 0.500000 0.437500
vt 0.976562 0.039062
vt 0.976562 0.437500
vt 0.769531 0.437500
vt 0.476562 0.039062
vt 0.476562 0.437500
vt 0.269531 0.437500
vt 0.250000 0.875000
vt 0.250000 1.000000
vt 0.125000 1.000000
vt 0.230469 0.039062
vt 0.230469 0.437500
vt 0.023438 0.437500
vt 0.519531 0.039062
vt 0.726562 0.039062
vt 0.726562 0.437500
vt 1.000000 0.000000
vt 1.000000 0.027344
vt 0.746094 0.027344
vt 0.496094 -0.000000
vt 0.496094 0.027344
vt 0.246094 0.027344
vt 0.367188 0.972656
vt 0.390625 0.949219
vt 0.640625 0.949219
vt 0.636719 0.699219
vt 0.636719 0.953125
vt 0.398438 0.953125
vt 0.000000 0.000000
vt 0.246094 0.000000
vt 0.246094 0.027344
vt 0.746094 0.000000
vt 0.746094 0.027344
vt 0.496094 0.027344
vt 0.699219 0.769531
vt 0.980469 0.769531
vt 0.980469 0.820312
vt 0.683594 0.980469
vt 0.027344 0.562500
vt 0.027344 0.464844
vt 0.054688 0.492188
vt 0.699219 0.753906
vt 0.980469 0.753906
vt 0.750000 0.593750
vt 0.750000 0.621094
vt 0.500000 0.621094
vt 0.500000 0.593750
vt 0.500000 0.621094
vt 0.246094 0.621094
vt 0.699219 0.820312
vt 0.683594 0.820312
vt 0.343750 0.996094
vt 0.300781 0.695312
vt 0.011719 0.578125
vt 0.000000 0.589844
vt 0.980469 0.996094
vt 0.699219 0.996094
vt 1.000000 0.621094
vt 1.000000 0.636719
vt 0.750000 0.636719
vt 0.500000 0.621094
vt 0.500000 0.636719
vt 0.246094 0.636719
vt 0.335938 0.656250
vt 0.140625 0.796875
vt 0.246094 0.621094
vt 0.246094 0.636719
vt -0.000000 0.636719
vt 0.750000 0.621094
vt 0.750000 0.636719
vt 0.500000 0.636719
vt 0.785156 0.042969
vt 0.785156 0.433594
vt 0.769531 0.433594
vt 0.769531 0.042969
vt 0.769531 0.437500
vt 0.750000 0.437500
vt 0.140625 0.796875
vt 0.195312 0.796875
vt 0.195312 0.851562
vt 0.343750 0.652344
vt 0.042969 0.695312
vt 0.535156 0.042969
vt 0.535156 0.437500
vt 0.519531 0.437500
vt 0.750000 0.042969
vt 0.730469 0.437500
vt 0.664062 0.679688
vt 0.640625 0.703125
vt 0.390625 0.703125
vt 0.664062 0.972656
vt 0.367188 0.679688
vt -0.000000 0.656250
vt 0.136719 0.453125
vt 0.148438 0.589844
vt 0.136719 0.578125
vt 0.000000 0.652344
vt 0.027344 0.566406
vt 0.015625 0.578125
vt 0.015625 0.453125
vt 0.980469 0.835938
vt 0.699219 0.835938
vt 0.996094 0.929688
vt 0.996094 0.980469
vt 0.996094 0.769531
vt 0.996094 0.820312
vt 0.125000 0.566406
vt 0.027344 0.464844
vt 0.054688 0.535156
vt 0.054688 0.496094
vt 0.093750 0.496094
vt 0.125000 0.464844
vt 0.125000 0.562500
vt 0.097656 0.535156
vt 0.097656 0.492188
vt 0.683594 0.847656
vt 0.269531 0.042969
vt 0.230469 0.042969
vt 0.195312 0.796875
vt 0.214844 0.039062
vt 0.246094 0.042969
vt 0.699219 0.675781
vt 0.683594 0.691406
vt 0.019531 0.042969
vt 0.980469 0.042969
vt 0.195312 0.851562
vt 0.960938 0.042969
vt -0.000000 0.042969
vt 0.878906 0.449219
vt 0.644531 0.449219
vt 0.527344 0.574219
vt 0.761719 0.449219
vt 0.867188 0.042969
vt 0.867188 0.042969
vt 0.867188 0.042969
vt 0.000000 0.593750
vt 0.699219 0.914062
vt 0.750000 0.593750
vt 0.515625 0.042969
vt 0.472656 0.042969
vt 0.140625 0.851562
vt 0.460938 0.042969
vt 0.500000 0.042969
vt 0.769531 0.039062
vt 0.269531 0.039062
vt 0.125000 0.875000
vt 0.023438 0.039062
vt 0.519531 0.437500
vt 0.746094 0.000000
vt 0.246094 0.000000
vt 0.398438 0.699219
vt 0.000000 0.027344
vt 0.496094 -0.000000
vt 0.683594 0.929688
vt 0.500000 0.593750
vt 0.246094 0.593750
vt 0.683594 0.769531
vt 0.750000 0.621094
vt 0.246094 0.621094
vt 0.000000 0.621094
vt 0.500000 0.621094
vt 0.769531 0.042969
vt 0.140625 0.851562
vt 0.519531 0.042969
vt 0.730469 0.042969
vt 0.093750 0.535156
vn -1.0000 0.0000 0.0000
vn 0.0000 1.0000 0.0000
vn 0.0000 -1.0000 0.0000
vn 0.0000 0.0000 -1.0000
vn 0.0000 -0.0000 1.0000
vn 0.0000 0.9801 -0.1985
vn 1.0000 0.0000 0.0000
vn 0.0000 0.9763 -0.2163
vn 0.2163 0.9763 0.0000
vn 0.0000 0.8946 -0.4470
vn 0.1985 0.9801 0.0000
vn 0.0000 0.9763 0.2163
vn 0.0000 0.9801 0.1985
vn -0.2163 0.9763 0.0000
vn -0.1985 0.9801 0.0000
vn 0.0000 0.8946 0.4470
vn 0.4470 0.8946 0.0000
vn -0.4469 0.8946 0.0000
vn -0.4470 0.8946 0.0000
usemtl Default_OBJ
s 1
f 1/1/1 2/2/1 3/3/1
f 2/2/2 4/4/2 5/5/2
f 6/6/3 7/7/3 1/1/3
f 8/8/4 3/3/4 5/9/4
f 7/10/5 4/11/5 2/2/5
f 9/12/4 10/13/4 11/14/4
f 12/15/5 13/16/5 14/17/5
f 10/18/2 14/19/2 13/20/2
f 15/21/6 16/22/6 17/23/6
f 18/24/7 11/25/7 13/26/7
f 19/27/1 14/28/1 10/29/1
f 20/30/7 21/31/7 22/32/7
f 21/31/2 23/33/2 24/34/2
f 25/35/3 20/30/3 26/36/3
f 26/36/5 22/32/5 24/37/5
f 25/38/4 23/39/4 21/31/4
f 27/40/1 28/41/1 29/42/1
f 30/43/7 31/44/7 32/45/7
f 28/46/2 32/47/2 31/48/2
f 33/49/8 34/50/8 35/51/8
f 36/52/4 29/53/4 31/54/4
f 37/55/5 32/56/5 28/57/5
f 35/58/7 38/59/7 39/60/7
f 40/61/1 41/62/1 42/63/1
f 38/64/3 43/65/3 44/66/3
f 40/67/5 45/68/5 39/69/5
f 34/70/4 42/71/4 38/72/4
f 46/73/7 47/74/7 48/75/7
f 49/76/5 48/77/5 50/78/5
f 51/79/4 52/80/4 47/81/4
f 53/82/5 54/83/5 55/84/5
f 24/85/5 56/86/5 57/87/5
f 58/88/3 53/82/3 59/89/3
f 23/90/7 60/91/7 56/92/7
f 44/93/5 61/94/5 62/95/5
f 63/96/7 64/97/7 65/98/7
f 66/99/1 67/100/1 68/101/1
f 64/102/2 68/103/2 67/104/2
f 69/105/9 35/51/9 45/106/9
f 70/107/5 65/108/5 67/109/5
f 71/110/4 68/111/4 64/112/4
f 72/113/7 73/114/7 74/115/7
f 75/116/1 76/117/1 77/118/1
f 73/119/2 77/120/2 76/121/2
f 78/122/5 74/123/5 76/124/5
f 72/125/4 79/126/4 77/127/4
f 80/128/7 81/129/7 82/130/7
f 83/131/1 84/132/1 85/133/1
f 81/134/2 86/135/2 87/136/2
f 88/137/3 80/138/3 89/139/3
f 83/140/5 89/141/5 82/142/5
f 88/143/4 85/144/4 81/145/4
f 90/146/4 91/147/4 92/148/4
f 59/89/1 55/84/1 4/149/1
f 93/150/10 94/151/10 95/152/10
f 96/153/3 97/154/3 91/147/3
f 5/155/4 15/156/4 60/157/4
f 4/158/1 57/159/1 15/160/1
f 90/146/7 98/161/7 23/162/7
f 60/163/11 17/23/11 99/164/11
f 42/165/3 100/166/3 43/65/3
f 54/83/2 24/167/2 4/168/2
f 17/169/7 69/170/7 101/171/7
f 102/172/1 103/173/1 33/174/1
f 101/175/12 45/106/12 40/176/12
f 99/177/5 101/178/5 103/179/5
f 16/180/4 33/181/4 69/182/4
f 104/183/5 105/184/5 106/185/5
f 107/186/4 108/187/4 109/188/4
f 105/189/2 109/190/2 108/191/2
f 56/192/13 99/164/13 102/193/13
f 110/194/1 106/195/1 108/196/1
f 111/197/7 109/188/7 105/198/7
f 84/199/2 112/200/2 113/201/2
f 82/202/2 87/136/2 112/200/2
f 85/203/2 113/201/2 86/135/2
f 103/204/14 40/176/14 34/50/14
f 39/205/3 44/66/3 114/206/3
f 41/207/3 114/206/3 100/166/3
f 57/208/15 102/193/15 16/22/15
f 100/209/4 94/210/4 93/211/4
f 92/148/2 5/212/2 23/213/2
f 58/214/7 24/215/7 54/83/7
f 97/216/1 5/217/1 92/148/1
f 114/218/1 62/95/1 94/210/1
f 43/219/7 93/211/7 61/94/7
f 115/220/2 95/221/2 116/222/2
f 62/223/16 61/224/16 117/225/16
f 61/224/17 93/150/17 115/220/17
f 94/151/18 62/223/18 116/226/18
f 8/8/1 1/1/1 3/3/1
f 3/3/2 2/2/2 5/5/2
f 8/8/3 6/6/3 1/1/3
f 6/227/4 8/8/4 5/9/4
f 1/1/5 7/10/5 2/2/5
f 18/228/4 9/12/4 11/14/4
f 19/229/5 12/15/5 14/17/5
f 11/230/2 10/18/2 13/20/2
f 60/163/6 15/21/6 17/23/6
f 12/231/7 18/24/7 13/26/7
f 9/232/1 19/27/1 10/29/1
f 26/36/7 20/30/7 22/32/7
f 22/32/2 21/31/2 24/34/2
f 118/233/3 25/35/3 26/36/3
f 118/234/5 26/36/5 24/37/5
f 20/30/4 25/38/4 21/31/4
f 36/235/1 27/40/1 29/42/1
f 37/236/7 30/43/7 32/45/7
f 29/237/2 28/46/2 31/48/2
f 69/105/8 33/49/8 35/51/8
f 30/238/4 36/52/4 31/54/4
f 27/239/5 37/55/5 28/57/5
f 45/240/7 35/58/7 39/60/7
f 34/241/1 40/61/1 42/63/1
f 39/205/3 38/64/3 44/66/3
f 41/242/5 40/67/5 39/69/5
f 35/243/4 34/70/4 38/72/4
f 49/244/7 46/73/7 48/75/7
f 119/245/5 49/76/5 50/78/5
f 46/246/4 51/79/4 47/81/4
f 59/89/5 53/82/5 55/84/5
f 4/247/5 24/85/5 57/87/5
f 120/248/3 58/88/3 59/89/3
f 24/249/7 23/90/7 56/92/7
f 114/218/5 44/93/5 62/95/5
f 70/250/7 63/96/7 65/98/7
f 71/251/1 66/99/1 68/101/1
f 65/252/2 64/102/2 67/104/2
f 101/175/9 69/105/9 45/106/9
f 66/253/5 70/107/5 67/109/5
f 63/254/4 71/110/4 64/112/4
f 78/255/7 72/113/7 74/115/7
f 79/256/1 75/116/1 77/118/1
f 74/257/2 73/119/2 76/121/2
f 75/258/5 78/122/5 76/124/5
f 73/259/4 72/125/4 77/127/4
f 89/260/7 80/128/7 82/130/7
f 88/261/1 83/131/1 85/133/1
f 82/202/2 81/134/2 87/136/2
f 83/262/3 88/137/3 89/139/3
f 84/263/5 83/140/5 82/142/5
f 80/264/4 88/143/4 81/145/4
f 98/161/4 90/146/4 92/148/4
f 120/265/1 59/89/1 4/149/1
f 115/220/10 93/150/10 95/152/10
f 90/146/3 96/153/3 91/147/3
f 23/266/4 5/155/4 60/157/4
f 5/267/1 4/158/1 15/160/1
f 96/268/7 90/146/7 23/162/7
f 56/192/11 60/163/11 99/164/11
f 38/64/3 42/165/3 43/65/3
f 55/84/2 54/83/2 4/168/2
f 99/269/7 17/169/7 101/171/7
f 16/270/1 102/172/1 33/174/1
f 103/204/12 101/175/12 40/176/12
f 102/271/5 99/177/5 103/179/5
f 17/272/4 16/180/4 69/182/4
f 110/273/5 104/183/5 106/185/5
f 111/197/4 107/186/4 109/188/4
f 106/274/2 105/189/2 108/191/2
f 57/208/13 56/192/13 102/193/13
f 107/275/1 110/194/1 108/196/1
f 104/276/7 111/197/7 105/198/7
f 85/203/2 84/199/2 113/201/2
f 84/199/2 82/202/2 112/200/2
f 81/134/2 85/203/2 86/135/2
f 33/49/14 103/204/14 34/50/14
f 41/207/3 39/205/3 114/206/3
f 42/165/3 41/207/3 100/166/3
f 15/21/15 57/208/15 16/22/15
f 43/219/4 100/209/4 93/211/4
f 98/161/2 92/148/2 23/213/2
f 53/82/7 58/214/7 54/83/7
f 91/147/1 97/216/1 92/148/1
f 100/209/1 114/218/1 94/210/1
f 44/93/7 43/219/7 61/94/7
f 117/277/2 115/220/2 116/222/2
f 116/226/16 62/223/16 117/225/16
f 117/225/17 61/224/17 115/220/17
f 95/152/19 94/151/18 116/226/18
